{"glyphs":{"0":{"x_min":31,"x_max":415,"ha":448,"o":"m 31 316 l 31 316 q 31 450 79 552 l 79 552 q 103 604 144 634 q 185 664 238 664 l 238 664 q 316 664 366 563 q 415 461 415 322 q 415 182 369 91 q 323 -1 239 -1 l 239 -1 q 31 -1 31 316 m 229 91 l 229 91 q 265 91 290 129 q 314 166 323 213 q 332 259 332 334 q 332 408 312 492 l 312 492 q 302 538 282 566 q 261 593 232 593 l 232 593 q 193 593 165 546 l 165 546 q 115 461 115 320 l 115 320 q 115 228 150 160 q 184 91 229 91"},"1":{"x_min":26,"x_max":320,"ha":363,"o":"m 313 356 l 316 47 q 316 -2 263 -2 l 263 -2 q 252 -2 244 8 q 235 17 235 37 l 235 37 l 232 291 q 232 417 235 528 l 235 528 q 201 498 169 459 q 137 420 126 407 q 114 394 96 382 q 77 369 61 369 q 45 369 36 380 q 26 391 26 407 q 26 423 50 451 q 73 478 223 637 l 223 637 q 246 658 281 658 l 281 658 q 298 658 309 648 q 320 638 320 625 l 320 625 l 313 356"},"2":{"x_min":27,"x_max":455,"ha":468,"o":"m 293 -2 l 293 -2 l 146 0 q 136 0 126 0 l 126 0 q 27 0 27 38 l 27 38 q 27 65 37 89 q 47 113 56 125 q 65 137 92 165 q 119 193 131 207 q 143 221 204 278 q 264 335 295 381 q 325 427 325 478 l 325 478 q 325 557 262 580 l 262 580 q 244 586 225 586 l 225 586 q 182 586 139 549 l 139 549 q 122 533 103 533 l 103 533 q 97 533 92 534 l 92 534 q 67 540 67 569 l 67 569 q 67 608 122 634 l 122 634 q 181 662 251 662 q 320 662 365 612 q 409 561 409 486 l 409 486 q 409 379 343 302 l 343 302 q 312 266 280 235 l 280 235 q 179 139 145 89 l 145 89 q 190 86 257 86 q 323 86 421 94 l 421 94 q 436 91 446 81 q 455 70 455 57 l 455 57 q 455 23 419 10 l 419 10 q 383 -2 293 -2"},"3":{"x_min":41,"x_max":416,"ha":448,"o":"m 218 584 l 218 584 q 159 584 108 533 l 108 533 q 94 523 83 523 q 72 523 64 525 l 64 525 q 41 532 41 557 l 41 557 q 41 598 93 629 q 145 660 216 660 q 287 660 335 623 q 382 585 382 525 q 382 465 369 425 q 355 385 310 359 l 310 359 q 416 319 416 215 l 416 215 q 416 127 363 64 q 310 0 234 0 q 157 0 99 37 q 41 73 41 119 l 41 119 q 41 128 51 140 q 61 152 80 152 q 99 152 121 135 q 143 117 171 100 q 199 82 234 82 l 234 82 q 334 82 334 207 l 334 207 q 334 255 300 285 q 265 314 202 315 l 202 315 q 189 316 183 317 q 176 318 166 326 q 155 334 155 351 l 155 351 q 155 387 195 390 q 235 393 267 426 q 298 459 298 509 l 298 509 q 298 537 274 561 q 250 584 218 584"},"4":{"x_min":36,"x_max":341,"ha":375,"o":"m 250 115 l 252 221 q 216 215 150 215 q 84 215 60 237 q 36 259 36 333 q 36 406 47 494 q 58 582 72 624 q 85 665 125 665 l 125 665 q 152 665 156 642 l 156 642 q 156 636 156 623 q 156 610 150 586 l 150 586 q 126 410 126 335 l 126 335 q 126 317 127 305 l 127 305 q 145 301 176 301 q 206 301 253 307 l 253 307 q 255 328 255 364 q 255 399 256 423 q 257 447 263 457 q 269 467 298 467 q 326 467 334 457 q 341 447 341 430 q 341 412 338 357 q 335 301 335 44 l 335 44 q 335 -1 291 -1 l 291 -1 q 289 -1 287 -1 l 287 -1 q 250 -1 250 60 l 250 60 l 250 115"},"5":{"x_min":34,"x_max":404,"ha":423,"o":"m 121 431 l 121 431 q 162 446 200 446 q 238 446 274 434 q 309 422 339 397 q 368 372 386 329 q 404 285 404 228 l 404 228 q 404 132 348 66 q 292 0 219 0 q 145 0 90 34 q 34 67 34 107 l 34 107 q 34 126 39 136 q 43 145 55 151 q 67 157 77 157 q 86 157 103 146 q 119 134 149 113 q 179 92 218 92 q 257 92 287 132 q 317 171 317 218 l 317 218 q 317 353 196 353 l 196 353 q 170 353 136 348 q 101 343 91 342 q 80 341 62 349 l 62 349 q 41 369 41 477 q 41 584 46 616 q 51 647 63 652 l 63 652 q 84 661 189 661 q 293 661 356 641 l 356 641 q 376 629 376 607 q 376 584 364 570 q 351 556 337 559 l 337 559 q 254 577 170 577 l 170 577 q 144 577 118 575 l 118 575 q 118 536 121 431"},"6":{"x_min":35,"x_max":368,"ha":399,"o":"m 266 596 q 251 576 198 469 q 144 362 139 341 l 139 341 q 181 352 225 352 q 268 352 306 328 l 306 328 q 368 287 368 196 l 368 196 q 368 -3 174 -4 l 174 -4 q 173 -4 171 -4 l 171 -4 q 100 -4 69 46 q 38 95 35 177 l 35 177 q 35 367 178 596 l 178 596 q 202 636 220 648 q 238 660 249 660 q 259 660 270 652 q 281 644 281 630 q 281 616 266 596 m 293 190 q 293 230 271 252 q 248 274 210 274 q 172 274 154 268 l 154 268 q 140 262 132 253 q 124 243 118 223 q 111 203 111 169 q 111 134 131 109 q 150 83 178 83 l 178 83 q 234 83 264 116 q 293 149 293 190"},"7":{"x_min":17,"x_max":453,"ha":495,"o":"m 385 359 l 339 358 l 331 43 q 331 21 317 10 q 302 -1 284 -1 l 284 -1 q 256 -1 256 74 l 256 74 q 256 229 265 360 l 265 360 l 163 354 q 151 353 141 366 q 131 378 131 391 l 131 391 q 131 426 173 426 l 173 426 l 271 427 l 281 548 q 247 560 107 582 l 107 582 q 53 591 43 593 l 43 593 q 17 598 17 632 l 17 632 q 17 644 27 655 q 37 666 56 666 q 74 666 206 645 q 337 623 351 610 l 351 610 q 357 605 357 573 l 357 573 q 357 558 350 492 l 350 492 q 344 446 343 429 l 343 429 l 393 432 q 400 432 416 432 q 431 432 442 425 q 453 418 453 399 q 453 379 439 370 q 425 360 385 359 l 385 359"},"8":{"x_min":45,"x_max":399,"ha":433,"o":"m 219 665 q 292 665 341 630 q 390 595 390 531 l 390 531 q 390 440 292 374 l 292 374 q 349 313 373 269 l 373 269 q 399 221 399 155 q 399 89 350 46 l 350 46 q 297 0 217 0 q 137 0 92 40 l 92 40 q 45 82 45 155 l 45 155 q 45 274 160 365 l 160 365 q 117 388 86 436 l 86 436 q 54 485 54 540 q 54 594 98 628 l 98 628 q 146 665 219 665 m 125 526 l 125 526 q 125 506 137 488 q 149 470 161 461 q 173 452 194 438 q 215 424 222 419 l 222 419 q 254 443 265 452 q 276 460 291 476 q 305 491 309 503 q 312 514 312 537 q 311 560 284 578 q 256 595 226 595 l 226 595 q 223 595 220 595 l 220 595 q 125 587 125 526 m 119 167 l 119 167 q 119 162 119 158 l 119 158 q 120 119 153 98 q 185 77 233 77 l 233 77 q 278 77 298 102 q 318 127 318 163 q 317 199 294 235 q 270 271 219 323 l 219 323 q 168 288 144 247 q 119 206 119 167"},"9":{"x_min":29,"x_max":340,"ha":367,"o":"m 339 521 l 339 521 l 338 421 q 338 387 338 232 l 338 232 l 340 42 q 340 24 325 13 q 309 1 296 1 q 282 1 274 14 q 266 26 265 42 l 265 42 q 258 189 258 346 l 258 346 q 232 312 153 312 l 153 312 q 99 312 64 368 q 29 424 29 489 l 29 489 q 29 575 83 621 q 136 666 218 666 q 300 666 331 603 l 331 603 q 339 586 339 521 m 260 425 l 260 497 l 261 546 q 261 570 257 578 q 253 585 247 589 l 247 589 q 240 596 231 596 q 221 596 206 593 q 190 589 166 579 q 141 568 123 544 q 104 519 104 480 q 104 441 124 416 q 144 391 166 391 l 166 391 q 172 391 179 393 l 179 393 q 239 409 260 425 l 260 425"}," ":{"x_min":0,"x_max":0,"ha":230,"o":""},"!":{"x_min":77,"x_max":176,"ha":247,"o":"m 164 688 l 164 688 l 155 347 q 155 292 156 275 l 156 275 q 152 262 141 252 q 129 242 115 242 q 101 242 92 264 l 92 264 q 77 516 77 688 l 77 688 q 86 713 123 713 q 160 713 164 688 m 95 49 q 80 66 80 84 q 80 102 94 117 q 108 132 132 132 q 155 132 166 123 q 176 114 176 84 l 176 84 q 176 31 132 31 l 132 31 q 110 31 95 49"},"\"":{"x_min":44,"x_max":240,"ha":303,"o":"m 103 557 q 93 547 80 547 q 67 547 57 557 q 47 566 44 583 l 44 583 l 52 732 q 57 763 86 763 l 86 763 q 121 763 121 695 l 121 695 q 121 678 118 651 q 114 624 113 584 l 113 584 q 112 567 103 557 m 207 755 l 207 755 q 234 755 240 725 l 240 725 q 240 725 235 600 l 235 600 q 235 583 225 573 q 215 563 203 563 l 203 563 q 170 563 167 596 l 167 596 q 167 644 170 660 q 173 675 173 721 l 173 721 q 175 736 185 746 q 195 755 207 755"},"#":{"x_min":35,"x_max":436,"ha":457,"o":"m 436 313 l 436 313 q 436 303 429 293 q 422 283 418 283 q 414 282 404 282 l 404 282 l 360 284 q 346 251 336 216 q 325 181 320 172 l 320 172 l 359 172 q 385 160 385 136 q 385 112 356 107 l 356 107 l 307 107 q 306 100 303 69 q 300 38 292 17 q 284 -4 261 -4 q 238 -4 233 23 l 233 23 l 244 104 l 152 100 l 147 69 q 139 25 130 12 l 130 12 q 121 1 109 1 q 96 1 87 11 q 78 20 77 35 l 77 35 l 84 87 q 85 99 85 100 l 85 100 l 68 100 q 53 102 44 112 q 35 121 35 133 q 35 145 46 155 q 56 164 71 164 l 71 164 l 103 164 q 115 214 143 277 l 143 277 q 91 275 80 276 q 68 276 59 285 q 49 294 49 307 l 49 307 q 49 330 75 337 q 100 344 140 348 l 140 348 l 172 352 q 179 367 183 397 l 183 397 q 193 464 225 464 l 225 464 q 259 464 259 426 l 259 426 q 259 406 244 359 l 244 359 q 264 359 316 355 l 316 355 q 320 367 325 393 q 330 419 334 430 l 334 430 q 344 463 367 463 l 367 463 q 397 463 397 422 l 397 422 q 397 399 380 348 l 380 348 q 390 348 416 341 l 416 341 q 436 335 436 313 m 215 288 l 215 288 q 207 273 168 167 l 168 167 q 179 167 257 169 l 257 169 q 268 215 289 292 l 289 292 q 242 292 215 288"},"$":{"x_min":60,"x_max":476,"ha":507,"o":"m 440 511 l 440 511 q 419 511 409 535 l 409 535 q 396 587 311 596 l 311 596 l 311 569 l 305 361 q 475 298 475 143 l 475 143 q 475 68 415 36 q 355 4 284 4 l 284 4 l 284 -20 q 283 -37 272 -48 q 261 -59 249 -59 l 249 -59 q 220 -59 215 -23 l 215 -23 l 215 5 q 157 21 109 57 q 60 92 60 128 l 60 128 q 60 143 69 153 q 78 163 91 163 q 103 163 125 144 l 125 144 q 126 143 142 128 l 142 128 q 193 82 220 72 l 220 72 q 224 120 225 191 q 226 261 232 316 l 232 316 q 113 361 83 408 l 83 408 q 71 428 71 465 q 71 501 91 545 q 111 589 148 622 q 184 654 233 664 l 233 664 l 233 692 q 235 707 245 716 q 255 724 267 724 l 267 724 q 292 724 301 695 l 301 695 l 301 667 q 365 662 413 630 q 461 598 476 548 l 476 548 q 474 525 457 515 l 457 515 q 450 511 440 511 m 239 385 l 239 468 l 242 558 q 242 585 241 593 l 241 593 q 198 582 169 542 q 140 501 140 460 l 140 460 q 143 416 239 385 l 239 385 m 404 132 q 404 193 380 227 q 355 261 296 288 l 296 288 q 293 258 292 198 q 290 138 287 61 l 287 61 q 404 70 404 132"},"%":{"x_min":43,"x_max":607,"ha":643,"o":"m 539 618 l 539 599 q 539 582 484 503 l 484 503 q 451 462 320 254 l 320 254 q 236 123 191 48 l 191 48 q 165 7 140 7 q 114 7 102 25 l 102 25 q 97 33 97 43 q 97 53 106 70 q 114 87 166 150 q 218 212 286 325 q 353 437 386 489 q 419 541 431 566 l 431 566 q 450 610 480 636 l 480 636 q 499 649 514 649 q 529 649 534 642 q 539 635 539 618 l 539 618 m 67 572 l 67 572 q 114 647 210 647 l 210 647 q 262 647 297 617 q 332 587 332 527 q 332 466 280 407 q 227 348 163 348 l 163 348 q 116 348 80 385 q 43 422 43 478 q 43 534 67 572 m 257 515 l 257 515 q 257 588 212 588 q 167 588 142 559 q 116 529 116 489 q 116 449 127 437 q 137 425 169 425 q 200 425 229 451 q 257 477 257 515 m 324 132 q 324 193 374 241 q 424 289 481 289 q 538 289 573 249 q 607 208 607 148 q 607 87 562 47 q 517 7 456 7 q 394 7 359 39 q 324 70 324 132 m 398 141 l 398 141 q 398 76 460 76 l 460 76 q 487 76 514 101 q 541 126 541 151 l 541 151 q 541 195 518 213 l 518 213 q 507 221 492 221 l 492 221 q 456 221 427 199 q 398 176 398 141"},"&":{"x_min":45,"x_max":488,"ha":530,"o":"m 388 521 q 388 469 361 435 q 333 400 270 361 l 270 361 q 282 343 309 306 q 336 269 342 260 l 342 260 l 373 209 q 403 258 408 283 l 408 283 q 416 313 449 313 l 449 313 q 466 313 477 304 q 488 294 488 278 l 488 278 q 488 239 410 145 l 410 145 q 441 85 456 41 l 456 41 q 454 26 442 15 q 430 4 415 4 q 400 4 388 16 l 388 16 q 380 28 375 43 q 370 58 358 86 l 358 86 q 312 37 281 20 q 250 2 210 2 q 169 2 128 34 q 87 66 66 113 l 66 113 q 45 155 45 197 l 45 197 q 45 263 79 304 q 113 344 179 382 l 179 382 q 132 467 132 528 q 132 589 170 625 q 207 661 260 661 q 313 661 351 617 q 388 573 388 521 m 262 585 l 262 585 q 210 585 208 501 l 208 501 q 213 458 237 415 l 237 415 q 307 457 307 499 q 307 540 292 563 l 292 563 q 279 585 262 585 m 208 87 l 208 87 q 260 87 323 151 l 323 151 q 319 157 313 167 q 307 176 296 194 q 284 211 262 243 q 239 274 221 309 l 221 309 l 213 323 q 181 300 168 288 l 168 288 q 123 249 123 198 q 123 146 158 109 l 158 109 q 178 87 208 87"},"'":{"x_min":44,"x_max":121,"ha":164,"o":"m 103 665 q 93 655 80 655 q 67 655 57 665 q 47 674 44 691 l 44 691 l 52 840 q 57 871 86 871 l 86 871 q 121 871 121 803 l 121 803 q 121 786 118 759 q 114 732 113 692 l 113 692 q 112 675 103 665"},"(":{"x_min":60,"x_max":294,"ha":334,"o":"m 60 321 q 60 437 73 499 q 85 560 110 608 q 135 655 171 709 q 206 763 233 780 l 233 780 q 244 786 256 786 q 268 786 281 776 q 294 766 294 758 q 294 749 249 685 q 203 620 188 597 q 173 574 161 541 q 148 507 143 457 q 137 406 137 336 q 137 266 159 180 q 181 94 208 65 l 208 65 q 293 -27 293 -49 l 293 -49 q 293 -60 279 -66 q 265 -73 248 -73 q 230 -73 217 -61 l 217 -61 q 128 28 94 117 q 60 205 60 321"},")":{"x_min":59,"x_max":295,"ha":364,"o":"m 295 376 q 295 244 271 168 q 246 92 174 -7 l 174 -7 q 138 -56 125 -65 q 112 -74 98 -74 q 83 -74 71 -63 q 59 -53 59 -42 l 59 -42 q 59 -39 114 39 q 168 117 187 155 q 206 193 213 252 q 220 310 220 382 q 220 453 198 540 q 175 626 148 655 l 148 655 q 60 746 60 772 l 60 772 q 60 781 75 787 q 89 793 108 793 q 126 793 133 784 l 133 784 q 228 689 262 599 q 295 508 295 376"},"*":{"x_min":43,"x_max":358,"ha":404,"o":"m 224 422 q 220 379 191 379 q 162 379 156 415 l 156 415 q 156 455 160 487 l 160 487 q 105 449 85 449 q 65 449 55 465 l 55 465 q 50 473 50 485 q 50 497 76 517 l 76 517 q 91 527 127 547 l 127 547 q 70 600 56 611 l 56 611 q 43 624 43 639 q 43 653 53 663 q 62 673 76 673 q 90 673 105 661 q 119 649 126 643 q 132 637 135 634 l 135 634 l 172 595 q 173 602 174 630 q 175 658 177 674 q 179 690 188 705 q 197 719 213 719 l 213 719 q 238 719 247 689 l 247 689 l 242 624 q 275 643 317 661 l 317 661 l 322 661 q 337 661 348 652 q 358 642 358 630 l 358 630 q 358 606 312 582 l 312 582 q 307 579 301 576 q 294 572 272 559 q 249 545 236 539 l 236 539 q 251 527 283 513 l 283 513 q 350 484 350 461 l 350 461 q 350 446 341 437 q 331 427 314 427 l 314 427 q 279 427 227 464 l 227 464 q 226 461 226 452 q 225 443 225 438 q 224 432 224 422 l 224 422"},"+":{"x_min":35,"x_max":436,"ha":480,"o":"m 80 277 l 204 277 l 204 285 l 202 355 q 202 456 252 456 l 252 456 q 275 456 283 427 l 283 427 l 281 277 l 407 277 q 436 272 436 250 l 436 250 q 436 234 424 220 q 412 205 395 200 l 395 200 l 280 200 q 279 193 279 177 l 279 177 q 279 177 279 129 l 279 129 q 279 126 279 122 l 279 122 q 279 12 231 12 l 231 12 q 200 12 200 47 l 200 47 q 200 149 203 200 l 203 200 l 68 200 q 35 200 35 227 l 35 227 q 35 243 49 259 q 62 275 80 277 l 80 277"},",":{"x_min":46,"x_max":149,"ha":202,"o":"m 80 73 q 86 104 113 104 q 140 104 149 76 l 149 76 q 149 10 128 -43 l 128 -43 q 121 -62 108 -75 q 94 -88 79 -88 l 79 -88 q 46 -88 46 -53 l 46 -53 q 46 -42 49 -32 l 49 -32 q 80 3 80 73 l 80 73"},"-":{"x_min":36,"x_max":368,"ha":404,"o":"m 323 196 l 152 197 l 69 195 q 55 195 46 205 q 36 215 36 234 q 36 252 48 264 q 60 276 82 276 l 82 276 l 136 276 l 281 276 q 312 276 331 276 l 331 276 q 368 274 368 238 l 368 238 q 368 221 357 209 q 345 196 323 196 l 323 196"},".":{"x_min":55,"x_max":164,"ha":214,"o":"m 108 120 q 129 120 145 104 q 161 88 164 60 l 164 60 q 164 38 148 20 q 132 1 111 1 q 89 1 72 13 q 55 24 55 48 q 55 72 71 96 q 86 120 108 120"},"/":{"x_min":44,"x_max":400,"ha":423,"o":"m 44 -14 l 44 -14 q 44 -10 47 0 l 47 0 q 112 153 189 355 q 266 557 331 713 l 331 713 q 345 739 372 739 l 372 739 q 384 739 392 732 q 400 725 400 714 q 400 702 375 644 q 350 586 255 342 q 159 97 108 -20 l 108 -20 q 91 -43 71 -43 l 71 -43 q 44 -43 44 -14"},":":{"x_min":59,"x_max":168,"ha":232,"o":"m 111 419 q 132 419 149 403 q 165 387 168 359 l 168 359 q 168 337 152 319 q 135 300 114 300 q 93 300 76 312 q 59 324 59 348 q 59 371 74 395 q 89 419 111 419 m 124 113 l 124 113 q 132 113 144 108 l 144 108 q 151 104 160 86 q 168 68 168 50 q 168 32 151 17 q 134 1 113 1 q 92 1 79 17 q 65 32 65 56 l 65 56 q 65 113 124 113"},";":{"x_min":56,"x_max":168,"ha":232,"o":"m 115 416 q 132 416 149 401 q 165 385 168 356 l 168 356 q 168 335 152 317 q 136 299 119 299 l 119 299 q 86 299 69 316 l 69 316 q 59 325 59 340 l 59 340 q 59 377 78 397 q 97 416 115 416 m 168 41 q 168 -12 141 -49 q 113 -86 90 -86 q 66 -86 66 -71 l 66 -71 q 66 -64 87 -38 q 107 -13 112 5 l 112 5 q 90 5 73 22 q 56 39 56 62 q 56 85 70 102 q 84 119 107 119 q 130 119 143 110 l 143 110 q 168 94 168 41"},"<":{"x_min":26,"x_max":357,"ha":396,"o":"m 41 205 q 26 218 26 236 q 26 254 43 265 l 43 265 q 182 380 299 457 l 299 457 q 309 462 322 462 q 334 462 345 451 q 355 440 355 426 q 355 412 347 401 l 347 401 q 337 394 119 235 l 119 235 q 143 217 227 161 q 310 105 349 73 l 349 73 q 357 60 357 49 q 357 37 344 26 q 331 14 318 14 q 304 14 300 17 l 300 17 q 258 50 176 107 q 93 164 41 205 l 41 205"},"=":{"x_min":109,"x_max":474,"ha":572,"o":"m 474 418 q 474 402 466 389 q 458 376 448 372 l 448 372 q 383 368 330 368 l 330 368 l 140 372 q 116 372 116 396 l 116 396 q 116 409 125 422 q 133 435 145 437 l 145 437 l 335 433 q 387 433 455 437 l 455 437 q 474 433 474 418 m 474 247 l 474 247 q 474 234 467 222 q 459 210 448 208 l 448 208 l 132 204 q 109 204 109 229 l 109 229 q 109 244 117 257 q 125 269 137 271 l 137 271 q 232 272 452 272 l 452 272 q 474 271 474 247"},">":{"x_min":42,"x_max":376,"ha":400,"o":"m 70 466 q 81 466 92 462 q 103 458 119 449 q 134 439 148 430 q 161 420 185 403 q 209 386 249 359 q 289 332 354 279 l 354 279 q 376 260 376 244 q 376 227 360 210 l 360 210 q 351 201 342 192 q 333 183 293 155 l 293 155 l 263 134 q 243 120 193 86 q 143 52 101 17 l 101 17 q 96 14 82 14 q 68 14 56 26 q 43 38 43 53 q 43 67 49 76 l 49 76 q 97 111 174 163 q 250 215 287 244 l 287 244 q 258 266 196 308 q 134 349 55 404 l 55 404 q 42 420 42 434 q 42 448 51 457 q 59 466 70 466"},"?":{"x_min":35,"x_max":355,"ha":368,"o":"m 278 570 l 278 570 q 278 594 253 613 q 227 632 201 632 q 175 632 153 621 q 131 609 121 593 l 121 593 q 93 553 78 553 l 78 553 q 35 553 35 595 l 35 595 q 35 633 88 673 q 141 712 199 712 l 199 712 q 281 712 329 645 l 329 645 q 355 608 355 570 l 355 570 q 355 504 301 443 l 301 443 q 278 417 255 394 l 255 394 q 200 339 200 321 q 200 303 214 281 l 214 281 q 227 259 227 251 q 227 243 222 233 l 222 233 q 210 215 188 215 q 165 215 142 246 q 119 276 119 313 l 119 313 q 119 378 168 431 l 168 431 q 191 456 211 473 l 211 473 q 278 536 278 570 m 143 85 q 143 102 157 117 q 170 132 194 132 q 218 132 229 123 q 239 114 239 84 l 239 84 q 239 31 191 31 l 191 31 q 173 31 158 49 q 143 67 143 85"},"@":{"x_min":35,"x_max":492,"ha":550,"o":"m 288 142 l 288 142 l 288 145 q 281 144 257 144 l 257 144 q 185 144 161 173 l 161 173 q 146 192 146 217 q 146 241 166 271 q 186 301 217 320 q 247 338 270 338 q 293 338 311 332 l 311 332 q 311 338 321 342 q 331 346 343 346 l 343 346 q 371 346 371 329 l 371 329 q 371 327 360 228 l 360 228 q 389 244 407 270 q 424 295 424 324 q 424 352 403 368 l 403 368 q 368 397 307 397 q 245 397 198 370 q 150 342 126 298 q 101 254 101 203 q 101 151 145 114 q 189 77 268 77 l 268 77 q 316 77 359 99 q 402 120 422 148 q 442 176 458 176 q 474 176 483 169 q 492 161 492 150 q 492 139 491 137 l 491 137 q 476 74 420 38 q 363 2 292 2 l 292 2 q 148 2 73 97 l 73 97 q 35 147 35 214 q 35 281 78 341 q 120 401 186 435 q 252 468 316 468 q 380 468 432 437 l 432 437 q 492 402 492 322 q 492 242 422 190 l 422 190 q 392 167 352 156 l 352 156 q 348 123 329 118 l 329 118 q 319 116 313 116 l 313 116 q 288 116 288 142 m 293 204 l 293 204 q 300 242 300 268 l 300 268 q 300 283 282 283 l 282 283 q 243 283 223 252 l 223 252 q 211 236 211 211 l 211 211 q 225 203 256 203 q 287 203 293 204"},"A":{"x_min":24,"x_max":469,"ha":488,"o":"m 259 659 l 259 659 q 284 659 301 637 q 318 615 345 546 l 345 546 q 408 383 468 35 l 468 35 q 469 31 469 24 q 469 16 460 8 q 450 -1 433 -1 q 415 -1 403 8 q 391 16 387 36 q 383 55 372 112 l 372 112 q 348 239 340 244 l 340 244 q 328 251 261 259 q 193 267 171 267 q 149 267 145 263 l 145 263 q 127 247 96 20 l 96 20 q 92 1 58 1 q 24 1 24 30 l 24 30 q 24 102 77 305 q 130 508 165 574 l 165 574 q 209 659 259 659 m 255 548 l 255 548 q 240 548 203 460 q 166 371 166 350 l 166 350 q 166 345 168 343 l 168 343 q 176 335 231 329 q 286 323 304 323 q 322 323 324 326 q 326 328 326 342 q 326 355 299 452 q 272 548 255 548"},"B":{"x_min":56,"x_max":465,"ha":507,"o":"m 198 2 l 198 2 l 69 5 q 58 47 56 383 l 56 383 l 56 454 q 56 539 72 584 q 88 628 139 655 l 139 655 q 165 668 212 668 q 258 668 283 662 l 283 662 q 350 648 375 610 q 399 572 399 508 l 399 508 q 399 419 352 377 l 352 377 q 376 374 400 353 q 424 332 439 310 l 439 310 q 465 270 465 201 l 465 201 q 465 93 400 48 q 334 2 198 2 m 136 489 l 136 489 l 138 375 q 140 375 172 380 q 204 384 226 389 l 226 389 q 327 413 327 504 l 327 504 q 327 549 301 570 q 274 591 231 591 l 231 591 q 177 591 158 572 l 158 572 q 150 564 145 559 q 140 553 138 541 q 136 529 136 524 q 135 519 136 505 q 136 491 136 489 m 362 277 q 351 287 330 296 q 309 305 270 305 q 230 305 135 292 l 135 292 q 135 136 140 81 l 140 81 q 257 81 304 97 q 351 112 368 135 q 384 157 384 183 q 384 208 384 219 q 383 229 378 248 q 372 266 362 277"},"C":{"x_min":42,"x_max":502,"ha":548,"o":"m 336 654 l 336 654 q 403 654 484 628 l 484 628 q 502 614 502 598 q 502 581 486 569 q 469 556 448 556 l 448 556 q 394 570 347 570 l 347 570 q 239 570 183 506 q 127 442 127 316 q 127 190 193 119 l 193 119 q 227 82 274 82 q 321 82 424 132 l 424 132 q 460 149 472 149 l 472 149 q 498 149 498 122 q 498 95 473 77 l 473 77 q 387 32 339 17 q 291 1 256 1 l 256 1 q 184 1 133 54 l 133 54 q 42 152 42 322 q 42 491 129 573 q 215 654 336 654"},"D":{"x_min":36,"x_max":468,"ha":475,"o":"m 72 -28 l 59 32 q 44 43 44 57 q 44 70 55 79 l 55 79 q 36 222 36 407 l 36 407 q 36 463 41 625 l 41 625 q 46 640 62 651 q 77 662 91 662 q 105 662 108 661 l 108 661 q 251 621 357 507 q 463 392 468 232 l 468 232 q 468 56 322 11 l 322 11 q 280 -2 234 -2 q 187 -2 152 5 l 152 5 q 156 -3 156 -16 q 156 -30 140 -42 q 123 -55 101 -55 q 78 -55 72 -28 l 72 -28 m 119 415 l 119 415 q 119 240 139 83 l 139 83 q 163 76 220 76 q 277 76 330 95 q 382 114 385 151 l 385 151 q 388 179 388 194 l 388 194 q 388 324 319 424 q 249 524 124 576 l 124 576 q 119 458 119 415"},"E":{"x_min":41,"x_max":427,"ha":442,"o":"m 59 197 l 55 344 q 41 353 41 370 q 41 387 52 401 l 52 401 q 48 501 48 612 l 48 612 q 54 636 67 647 q 79 658 103 661 l 103 661 q 235 655 389 655 l 389 655 q 427 647 427 622 l 427 622 q 427 580 345 573 l 345 573 q 323 572 297 572 l 297 572 l 232 572 q 213 572 127 580 l 127 580 q 127 455 131 408 l 131 408 q 184 407 335 407 l 335 407 q 371 400 371 375 q 371 349 342 335 l 342 335 q 339 333 331 331 l 331 331 l 158 334 q 142 334 132 332 l 132 332 l 136 160 q 136 102 133 77 l 133 77 l 365 80 q 397 75 397 53 l 397 53 q 397 38 384 23 q 370 8 352 4 l 352 4 l 96 0 q 73 0 64 9 q 55 17 55 37 l 55 37 q 59 65 59 127 l 59 127 l 59 197"},"F":{"x_min":-2,"x_max":395,"ha":375,"o":"m 210 648 l 210 648 l 321 650 q 395 650 395 611 l 395 611 q 395 597 391 592 q 387 586 385 583 q 383 580 377 578 l 377 578 q 365 574 357 573 q 349 572 346 572 l 346 572 q 335 570 309 569 q 283 568 234 568 q 184 568 112 572 l 112 572 l 112 388 l 316 388 q 327 388 337 378 q 346 368 346 356 l 346 356 q 346 310 307 310 l 307 310 l 112 310 l 116 48 q 116 -3 82 -3 q 47 -3 41 43 l 41 43 q 38 58 38 298 q 37 537 35 573 l 35 573 q -2 569 -2 615 l -2 615 q -2 627 8 642 q 18 656 26 657 q 33 658 45 658 q 56 658 101 654 l 101 654 q 163 648 210 648"},"G":{"x_min":44,"x_max":474,"ha":480,"o":"m 331 664 l 331 664 q 379 664 427 640 q 474 616 474 586 l 474 586 q 474 540 436 540 l 436 540 q 422 540 387 558 q 352 576 328 576 l 328 576 q 242 576 185 499 q 127 422 127 303 l 127 303 q 127 214 166 147 q 205 80 259 80 q 312 80 343 116 q 373 151 373 196 l 373 196 q 373 221 370 238 q 366 254 352 268 q 338 281 315 281 q 292 281 272 291 q 251 301 251 318 q 251 335 261 350 q 271 365 288 368 l 288 368 q 356 368 380 354 q 403 340 415 331 q 427 322 435 301 q 443 280 448 266 q 452 252 454 221 l 454 221 q 456 169 456 100 q 456 30 446 14 l 446 14 q 437 1 416 1 q 395 0 387 9 q 379 18 377 49 l 377 49 q 353 28 317 14 q 280 -1 252 -1 l 252 -1 q 164 -1 104 93 q 44 186 44 318 l 44 318 q 44 388 67 456 q 90 523 129 569 l 129 569 q 211 664 331 664"},"H":{"x_min":55,"x_max":433,"ha":468,"o":"m 136 623 l 132 383 q 210 370 275 370 q 340 370 358 371 l 358 371 q 356 447 356 517 q 356 587 356 612 q 356 637 358 644 q 360 650 371 656 q 382 662 403 662 l 403 662 q 433 662 433 626 l 433 626 l 433 272 q 433 162 428 30 l 428 30 q 427 1 379 1 l 379 1 q 355 1 355 30 l 355 30 l 359 295 q 327 293 272 293 q 216 293 132 305 l 132 305 q 132 173 144 29 l 144 29 q 145 13 130 5 q 115 -4 93 -4 q 70 -4 68 19 l 68 19 q 55 161 55 299 l 55 299 l 61 611 q 61 631 76 641 q 91 650 108 650 l 108 650 q 136 650 136 623 l 136 623"},"I":{"x_min":76,"x_max":164,"ha":235,"o":"m 100 636 q 115 646 135 646 q 155 646 160 623 l 160 623 q 161 507 164 276 l 164 276 q 164 135 156 37 l 156 37 q 154 22 138 11 q 121 -1 104 -1 l 104 -1 q 76 -1 76 28 l 76 28 q 86 128 86 276 l 86 276 l 80 612 q 84 626 100 636"},"J":{"x_min":35,"x_max":341,"ha":370,"o":"m 239 636 q 239 646 255 657 q 271 668 287 668 q 302 668 311 661 q 319 654 320 644 l 320 644 q 341 374 341 303 q 341 231 339 195 q 337 159 329 118 q 321 76 306 52 l 306 52 q 273 -4 200 -4 q 127 -4 81 45 q 35 93 35 184 l 35 184 q 35 199 51 212 q 66 224 84 224 l 84 224 q 106 224 111 183 l 111 183 q 124 67 198 67 l 198 67 q 217 67 231 80 q 244 92 251 110 q 258 127 262 156 l 262 156 q 268 198 268 257 q 268 315 254 470 q 239 625 239 636"},"K":{"x_min":47,"x_max":504,"ha":523,"o":"m 73 36 l 73 114 q 73 191 64 375 q 54 558 47 607 l 47 607 q 47 629 62 646 q 77 662 96 662 l 96 662 q 120 662 128 632 l 128 632 q 144 532 148 344 l 148 344 q 238 427 288 486 q 337 545 392 637 l 392 637 q 408 664 439 664 l 439 664 q 455 664 466 656 q 476 647 476 635 l 476 635 q 476 603 420 525 q 363 446 300 372 l 300 372 q 384 288 444 178 l 444 178 q 452 164 465 143 q 478 122 485 110 l 485 110 q 504 77 504 54 q 504 31 493 17 q 481 2 464 2 q 447 2 420 47 q 393 91 343 173 q 292 254 236 316 l 236 316 q 180 262 152 241 l 152 241 q 155 177 155 135 q 155 92 153 66 l 153 66 q 147 1 100 1 l 100 1 q 71 1 73 36 l 73 36"},"L":{"x_min":27,"x_max":344,"ha":372,"o":"m 27 139 l 27 139 l 28 217 l 37 635 q 37 647 50 654 q 63 661 83 661 l 83 661 q 131 661 131 627 l 131 627 q 131 616 120 459 q 108 302 108 271 l 108 271 q 108 271 108 165 l 108 165 q 108 90 118 83 l 118 83 q 133 78 153 78 l 153 78 l 297 88 q 344 88 344 54 l 344 54 q 344 27 319 15 q 293 2 268 1 q 243 -1 207 -1 l 207 -1 q 50 -1 37 9 l 37 9 q 30 15 29 55 q 28 94 28 110 q 27 126 27 139"},"M":{"x_min":51,"x_max":549,"ha":595,"o":"m 513 666 l 513 666 q 537 666 544 631 l 544 631 q 549 468 549 276 q 549 83 547 53 q 545 23 534 11 q 523 -1 494 -1 l 494 -1 q 468 -1 468 31 l 468 31 l 468 257 q 468 312 466 370 q 464 428 464 443 l 464 443 q 430 385 374 348 q 318 310 249 310 q 180 310 133 367 l 133 367 q 131 306 131 223 q 131 139 132 47 l 132 47 q 132 22 116 11 q 99 -1 78 -1 l 78 -1 q 51 -1 51 32 l 51 32 q 52 122 52 317 l 52 317 l 52 601 q 52 618 64 634 q 75 650 91 650 q 106 650 119 642 q 132 633 133 616 l 133 616 q 137 505 169 451 q 201 397 245 397 q 289 397 321 412 q 352 426 373 445 q 393 464 412 499 l 412 499 q 439 549 464 622 l 464 622 q 479 666 513 666"},"N":{"x_min":41,"x_max":498,"ha":532,"o":"m 423 656 q 433 662 449 662 q 465 662 478 649 q 491 635 491 617 l 491 617 q 491 226 495 145 q 498 63 498 61 l 498 61 q 498 39 486 20 q 474 0 460 0 q 445 0 438 2 q 430 3 424 5 q 418 7 412 13 l 412 13 l 402 23 q 398 27 392 39 q 385 50 381 57 q 377 64 369 82 q 360 99 332 153 q 303 207 280 250 l 280 250 q 201 395 133 479 l 133 479 q 133 154 115 28 l 115 28 q 112 4 78 4 l 78 4 q 62 4 52 12 q 41 20 41 38 q 41 56 49 236 q 56 416 56 461 q 56 505 56 517 l 56 517 q 56 589 67 598 q 78 607 90 607 l 90 607 q 145 607 258 427 l 258 427 q 280 392 342 281 q 404 169 416 143 l 416 143 l 404 558 q 404 644 423 656 l 423 656"},"O":{"x_min":42,"x_max":521,"ha":556,"o":"m 306 665 l 306 665 q 376 665 425 620 l 425 620 q 521 534 521 349 q 521 163 415 57 l 415 57 q 360 4 288 -1 l 288 -1 q 193 -1 140 64 q 87 129 65 210 q 42 290 42 365 l 42 365 q 42 493 103 576 l 103 576 q 167 665 306 665 m 299 582 l 299 582 q 165 582 132 455 l 132 455 q 122 421 122 368 q 122 315 142 245 l 142 245 q 169 151 222 113 l 222 113 q 253 89 297 89 q 341 89 376 129 q 411 168 424 229 q 437 290 437 352 l 437 352 q 437 462 406 522 q 374 582 299 582"},"P":{"x_min":50,"x_max":425,"ha":481,"o":"m 57 102 l 57 102 q 50 205 50 381 q 50 556 55 608 l 55 608 q 60 640 99 651 q 138 661 202 661 l 202 661 q 296 661 361 621 q 425 580 425 501 l 425 501 q 425 436 407 393 q 389 349 362 328 l 362 328 q 318 294 232 294 l 232 294 q 195 294 135 304 l 135 304 q 140 104 139 52 q 138 0 104 0 l 104 0 q 82 0 76 8 q 70 16 68 20 q 66 23 64 30 q 62 37 61 42 q 60 46 60 55 q 59 64 58 69 l 58 69 q 57 84 57 102 m 342 499 q 342 539 298 563 q 254 586 204 586 q 154 586 134 577 l 134 577 q 130 518 130 469 q 130 419 134 379 l 134 379 q 161 376 171 374 l 171 374 q 197 371 216 371 q 234 371 241 372 q 247 372 266 375 q 284 377 292 383 q 300 389 312 399 q 324 409 329 422 l 329 422 q 342 458 342 499"},"Q":{"x_min":49,"x_max":605,"ha":655,"o":"m 494 52 l 494 52 l 481 67 q 410 6 307 -4 l 307 -4 q 231 2 171 49 q 110 95 80 166 q 49 236 49 307 l 49 307 q 49 443 118 550 l 118 550 q 151 603 204 634 q 257 665 320 665 q 383 665 439 636 q 495 607 531 557 l 531 557 q 605 453 605 319 l 605 319 q 605 218 545 127 l 545 127 q 545 126 576 94 l 576 94 q 605 62 605 47 q 605 31 595 15 q 584 -1 560 -1 q 536 -1 494 52 m 174 161 l 174 161 q 220 78 319 72 l 319 72 q 399 79 444 113 l 444 113 l 365 204 q 334 239 334 258 q 334 276 347 289 q 360 301 380 301 q 399 301 431 267 l 431 267 q 450 245 482 204 l 482 204 q 496 184 500 180 l 500 180 q 532 238 532 307 l 532 307 q 532 463 428 545 l 428 545 q 376 587 305 587 l 305 587 q 213 587 169 503 l 169 503 q 132 429 132 333 q 132 236 174 161"},"R":{"x_min":37,"x_max":426,"ha":454,"o":"m 119 43 q 119 25 103 11 q 87 -4 69 -4 q 50 -4 43 20 l 43 20 q 40 152 40 283 l 40 283 l 37 535 q 37 611 104 639 l 104 639 q 158 664 232 664 l 232 664 q 270 664 314 646 q 357 627 392 592 q 426 556 426 515 q 426 473 388 426 q 350 378 294 342 q 238 305 185 287 l 185 287 q 278 222 347 148 q 416 73 416 32 l 416 32 q 416 19 403 8 q 390 -4 372 -4 q 353 -4 340 12 l 340 12 q 318 65 257 124 q 195 182 113 235 l 113 235 l 119 43 m 115 343 q 182 346 266 399 q 349 452 349 495 q 349 537 307 560 q 265 583 208 583 q 150 583 116 569 l 116 569 q 115 518 115 343 l 115 343"},"S":{"x_min":34,"x_max":440,"ha":459,"o":"m 266 662 l 266 662 q 331 662 377 640 q 422 618 422 584 l 422 584 q 422 569 415 558 q 407 547 393 547 q 378 547 330 570 q 282 592 243 592 q 203 592 161 567 q 119 542 119 506 l 119 506 q 119 457 170 434 l 170 434 q 208 417 279 404 q 350 390 395 349 q 440 307 440 223 l 440 223 q 440 95 363 34 l 363 34 q 320 0 242 0 q 163 0 85 43 l 85 43 q 34 70 34 97 l 34 97 q 34 107 43 119 q 51 131 66 139 q 81 147 94 142 q 106 136 134 122 q 162 108 175 103 l 175 103 q 217 87 254 87 q 291 87 326 124 q 360 160 360 213 l 360 213 q 360 283 290 311 l 290 311 q 256 325 213 332 l 213 332 q 124 348 79 386 q 34 423 34 499 q 34 575 99 619 q 164 662 266 662"},"T":{"x_min":1,"x_max":478,"ha":468,"o":"m 44 649 l 44 649 l 449 655 q 478 646 478 626 l 478 626 q 478 576 437 576 l 437 576 q 362 576 278 572 l 278 572 q 273 486 273 443 q 273 399 273 387 l 273 387 l 277 36 q 277 5 261 0 l 261 0 q 249 -4 231 -4 l 231 -4 q 202 -4 199 29 l 199 29 q 193 106 193 317 q 193 527 199 570 l 199 570 q 178 569 137 569 q 96 569 35 570 l 35 570 q 19 570 10 580 q 1 590 1 605 q 1 619 14 633 q 26 647 44 649"},"U":{"x_min":35,"x_max":510,"ha":550,"o":"m 433 650 q 447 666 464 666 q 481 666 493 649 l 493 649 q 510 562 510 454 l 510 454 l 510 378 q 510 292 507 277 q 504 261 501 242 q 498 223 496 213 q 493 203 488 186 l 488 186 q 477 149 457 120 l 457 120 q 427 64 378 32 q 329 0 279 0 q 228 0 175 44 q 121 88 87 154 l 87 154 q 35 256 35 389 l 35 389 q 35 436 49 612 l 49 612 q 56 628 71 641 q 85 653 100 653 l 100 653 q 122 653 127 623 l 127 623 q 113 450 113 404 l 113 404 q 113 294 156 209 l 156 209 q 183 153 223 116 q 262 78 300 78 l 300 78 q 363 78 408 176 l 408 176 q 427 210 429 285 l 429 285 q 429 305 431 313 l 431 313 l 433 445 q 433 537 419 613 l 419 613 q 419 634 433 650"},"V":{"x_min":61,"x_max":562,"ha":562,"o":"m 295 19 l 295 19 q 254 140 210 241 q 166 341 97 493 l 97 493 q 73 546 67 559 q 61 571 61 587 q 61 602 77 617 q 92 632 111 632 q 130 632 143 613 l 143 613 l 191 503 q 292 270 335 164 l 335 164 l 353 234 q 375 326 399 416 l 399 416 q 467 662 533 662 l 533 662 q 545 662 554 655 q 562 648 562 636 q 562 624 550 601 q 537 578 518 518 q 499 458 495 448 q 490 437 447 279 q 403 121 372 31 l 372 31 q 367 15 353 5 q 339 -6 322 -6 q 304 -6 295 19"},"W":{"x_min":29,"x_max":604,"ha":616,"o":"m 575 667 l 575 667 q 596 667 604 637 l 604 637 q 598 536 591 494 q 584 451 580 419 q 575 387 574 375 q 572 363 565 326 q 558 289 551 253 q 543 216 542 209 q 540 202 523 120 q 506 37 498 19 q 489 0 469 0 q 448 0 436 12 l 436 12 q 390 75 349 168 l 349 168 q 339 192 327 220 q 314 248 308 262 l 308 262 l 299 283 q 278 247 241 161 q 204 75 176 23 l 176 23 q 158 0 136 0 l 136 0 q 90 0 66 245 l 66 245 q 66 246 65 256 q 63 266 61 291 q 58 316 55 347 q 51 377 29 599 l 29 599 q 29 619 44 636 q 59 652 77 652 l 77 652 q 99 652 107 623 l 107 623 q 134 298 161 143 l 161 143 q 169 157 202 236 q 235 314 262 361 q 289 407 314 407 l 314 407 q 331 407 343 389 l 343 389 q 406 210 451 137 l 451 137 q 452 148 463 197 l 463 197 l 476 261 q 476 267 479 278 q 481 289 483 300 q 484 310 486 319 l 486 319 l 497 382 q 521 530 527 625 l 527 625 q 531 642 546 655 q 560 667 575 667"},"X":{"x_min":29,"x_max":574,"ha":601,"o":"m 63 -5 l 63 -5 q 29 -5 29 24 l 29 24 q 29 40 37 56 l 37 56 q 45 65 114 141 q 182 216 240 288 l 240 288 q 104 500 67 565 l 67 565 q 62 577 62 592 q 62 606 77 621 q 91 636 110 636 q 128 636 139 619 l 139 619 q 239 455 300 360 l 300 360 q 404 482 497 632 l 497 632 q 514 662 545 662 l 545 662 q 557 662 566 655 q 574 647 574 636 q 574 625 568 608 l 568 608 q 493 483 344 295 l 344 295 q 430 157 503 72 l 503 72 q 511 56 511 42 q 511 28 497 13 q 482 -2 464 -2 q 446 -2 433 8 l 433 8 q 388 65 283 224 l 283 224 q 216 145 92 7 l 92 7 q 76 -5 63 -5"},"Y":{"x_min":20,"x_max":430,"ha":442,"o":"m 178 162 l 178 242 l 179 293 q 179 319 163 344 q 146 369 83 489 q 20 609 20 625 q 20 640 33 653 q 46 665 59 665 q 71 665 89 642 q 106 619 158 521 q 209 423 217 413 l 217 413 q 313 583 371 653 l 371 653 q 385 666 394 666 q 402 666 406 664 l 406 664 q 430 654 430 638 q 430 621 422 609 l 422 609 q 414 597 378 546 l 378 546 q 325 472 287 397 q 248 321 248 304 l 248 304 l 248 121 l 251 41 q 251 19 239 11 q 227 2 210 2 q 192 2 186 21 q 180 40 179 71 q 178 102 178 162 l 178 162"},"Z":{"x_min":37,"x_max":488,"ha":507,"o":"m 229 0 l 229 0 l 77 -4 q 75 -4 67 -4 q 58 -4 51 4 q 44 11 44 29 l 44 29 q 58 106 84 152 q 110 197 157 250 q 203 303 216 319 l 216 319 q 92 340 92 379 l 92 379 q 92 400 106 414 q 119 427 128 427 q 137 427 187 414 q 236 400 280 396 l 280 396 q 283 401 301 424 q 319 447 334 466 l 334 466 q 371 515 397 563 l 397 563 q 278 589 71 589 l 71 589 q 37 589 37 620 l 37 620 q 37 631 52 646 q 67 660 89 662 q 110 664 163 664 q 216 664 323 650 l 323 650 q 478 630 487 594 l 487 594 q 488 591 488 581 q 488 570 471 538 l 471 538 q 448 493 381 406 l 381 406 q 372 394 367 388 l 367 388 q 371 388 386 389 q 400 389 405 389 q 410 388 419 386 l 419 386 q 439 380 439 354 q 439 327 413 318 q 386 308 369 308 q 351 308 343 308 l 343 308 l 307 312 q 242 239 213 203 l 213 203 q 164 139 143 76 l 143 76 l 280 72 q 311 72 350 75 l 350 75 l 405 80 q 413 81 422 81 q 430 81 442 80 l 442 80 q 468 78 474 45 l 474 45 q 478 20 449 10 l 449 10 q 417 -1 384 -1 q 351 -2 334 -2 l 334 -2 l 251 0 q 241 0 229 0"},"[":{"x_min":61,"x_max":257,"ha":303,"o":"m 140 13 l 140 13 q 144 14 166 14 l 166 14 q 240 14 240 -14 l 240 -14 q 240 -67 144 -67 l 144 -67 q 84 -67 71 -51 l 71 -51 q 64 -43 64 -29 l 64 -29 l 64 312 l 61 397 l 61 701 q 63 736 85 748 q 106 760 156 760 l 156 760 l 172 760 q 257 760 257 724 l 257 724 q 257 679 190 679 l 190 679 l 157 679 q 148 681 140 679 l 140 679 q 143 606 143 500 l 143 500 q 143 500 140 13"},"\\":{"x_min":25,"x_max":380,"ha":420,"o":"m 353 -38 l 353 -38 q 326 -38 312 -12 l 312 -12 q 262 104 175 334 q 88 563 28 701 l 28 701 q 25 710 25 720 q 25 729 33 737 q 40 744 50 744 l 50 744 q 72 744 89 721 l 89 721 q 146 588 235 363 q 323 138 352 68 q 380 -2 380 -13 q 380 -25 373 -31 q 365 -38 353 -38"},"]":{"x_min":44,"x_max":239,"ha":296,"o":"m 133 760 l 145 760 q 196 760 218 748 q 239 736 239 701 l 239 701 l 239 -29 q 239 -46 226 -55 q 212 -64 197 -65 q 182 -67 157 -67 l 157 -67 q 61 -67 61 -16 l 61 -16 q 61 14 136 14 l 136 14 q 157 14 161 13 l 161 13 l 161 457 q 160 531 160 587 q 160 642 161 679 l 161 679 q 143 681 132 680 q 121 679 112 679 l 112 679 q 44 679 44 721 l 44 721 q 44 760 133 760 l 133 760"},"^":{"x_min":58,"x_max":303,"ha":370,"o":"m 303 620 l 303 620 q 303 606 291 596 q 279 586 269 587 q 259 587 228 610 q 197 632 180 653 l 180 653 q 115 588 96 589 q 76 589 67 601 q 58 612 59 628 q 59 643 111 682 q 163 721 186 721 q 208 720 256 682 q 303 643 303 620"},"_":{"x_min":31,"x_max":541,"ha":571,"o":"m 397 -61 l 124 -60 q 83 -60 55 -60 l 55 -60 q 31 -60 31 -33 l 31 -33 q 31 -19 40 -10 q 49 -1 67 -1 l 67 -1 q 216 -2 329 -2 q 441 -2 516 -1 l 516 -1 q 541 -1 541 -29 l 541 -29 q 541 -40 528 -50 q 515 -60 504 -60 l 504 -60 q 465 -61 397 -61 l 397 -61"},"`":{"x_min":30,"x_max":190,"ha":220,"o":"m 172 563 l 172 563 q 190 554 190 525 l 190 525 q 190 517 184 511 l 184 511 q 175 497 162 497 q 148 497 130 507 q 111 517 84 544 q 56 571 43 597 q 30 622 30 632 q 30 641 32 650 q 33 658 45 665 q 56 671 63 671 q 70 671 74 670 l 74 670 q 89 666 115 623 q 141 579 172 563"},"a":{"x_min":25,"x_max":373,"ha":392,"o":"m 317 467 l 317 467 q 361 467 361 392 l 361 392 q 361 384 361 375 l 361 375 l 359 305 q 358 272 358 240 l 358 240 l 373 14 q 373 -11 322 -11 l 322 -11 q 319 -11 308 -11 q 296 -11 292 -2 q 287 7 291 20 q 294 33 288 49 l 288 49 q 242 0 166 0 l 166 0 q 25 0 25 218 l 25 218 q 25 339 71 401 q 116 463 201 463 l 201 463 q 241 463 281 449 l 281 449 q 294 467 317 467 m 213 376 l 213 376 q 156 376 128 343 q 100 310 100 222 l 100 222 q 100 74 180 74 l 180 74 q 201 74 227 93 q 252 112 262 136 l 262 136 q 281 190 281 254 q 281 318 266 347 q 250 376 213 376"},"b":{"x_min":40,"x_max":372,"ha":412,"o":"m 40 676 l 40 676 q 40 716 90 716 l 90 716 q 113 716 117 688 l 117 688 l 117 538 q 117 496 118 454 l 118 454 q 138 460 169 460 l 169 460 q 266 460 319 395 q 372 330 372 232 q 372 134 310 67 q 247 -1 149 -1 q 51 -1 51 55 q 51 110 46 337 q 40 563 40 676 m 242 354 l 242 354 q 206 382 166 382 l 166 382 q 144 382 121 374 l 121 374 q 127 292 127 83 l 127 83 q 144 77 162 77 l 162 77 q 201 77 240 106 l 240 106 q 298 146 298 229 q 298 311 242 354"},"c":{"x_min":24,"x_max":382,"ha":388,"o":"m 24 234 q 24 301 60 356 q 95 411 150 439 q 205 466 257 466 q 309 466 341 454 q 372 441 372 421 q 372 400 361 380 q 349 359 330 359 l 330 359 q 323 359 292 371 q 260 382 251 382 l 251 382 q 193 382 152 340 q 111 297 111 227 q 111 157 134 123 q 156 88 211 88 l 211 88 q 233 88 287 114 q 340 139 353 139 q 366 139 374 131 q 382 123 382 111 l 382 111 q 382 87 352 61 q 321 34 276 17 q 231 -1 195 -1 l 195 -1 q 115 -1 70 62 q 24 125 24 234 l 24 234"},"d":{"x_min":25,"x_max":370,"ha":390,"o":"m 277 468 l 277 468 l 276 661 q 276 715 311 715 q 345 715 349 685 l 349 685 q 351 672 354 528 q 357 384 364 258 q 370 132 370 23 l 370 23 q 370 -7 325 -7 l 325 -7 q 295 -7 295 35 l 295 35 q 252 1 193 1 l 193 1 q 118 1 72 57 q 25 113 25 195 q 25 277 59 349 q 92 420 163 451 l 163 451 q 207 470 248 470 l 248 470 q 263 470 277 468 m 283 332 q 275 353 265 365 q 255 376 244 379 q 232 381 216 381 q 200 381 177 369 q 154 357 138 330 l 138 330 q 106 276 106 217 q 106 157 130 120 q 153 82 197 82 q 240 82 265 125 q 290 168 290 235 l 290 235 q 290 310 283 332"},"e":{"x_min":20,"x_max":378,"ha":398,"o":"m 182 463 l 182 463 q 235 463 283 432 q 331 401 331 356 q 331 310 292 268 q 253 225 188 216 l 188 216 q 160 212 104 212 l 104 212 q 115 127 147 100 l 147 100 q 157 89 174 89 l 174 89 q 236 89 278 129 q 320 168 338 168 l 338 168 q 346 168 362 153 q 378 138 378 125 l 378 125 q 378 99 315 50 l 315 50 q 287 27 248 12 q 208 -4 174 -4 l 174 -4 q 87 -4 46 108 l 46 108 q 20 177 20 260 q 20 343 59 403 q 98 463 182 463 m 187 394 l 187 394 q 149 394 122 351 l 122 351 q 112 336 103 283 l 103 283 q 243 283 243 352 l 243 352 q 243 394 187 394"},"f":{"x_min":21,"x_max":350,"ha":359,"o":"m 175 701 q 190 712 202 714 q 213 715 255 715 q 296 715 323 703 q 350 691 350 655 q 350 619 321 619 l 321 619 q 315 619 287 630 q 259 640 251 640 l 251 640 q 216 640 209 598 l 209 598 q 207 583 207 537 q 207 490 207 460 l 207 460 l 277 460 q 321 458 321 429 l 321 429 q 321 387 261 385 l 261 385 q 252 384 239 384 q 226 384 209 385 l 209 385 q 211 345 218 243 q 225 140 225 43 l 225 43 q 225 23 209 11 q 193 -1 176 -1 l 176 -1 q 149 -1 149 31 l 149 31 q 149 121 142 206 q 135 291 132 385 l 132 385 q 42 385 27 403 l 27 403 q 21 410 21 421 l 21 421 q 21 447 43 455 q 64 463 92 463 q 120 463 132 463 l 132 463 q 135 626 150 665 l 150 665 q 159 689 175 701"},"g":{"x_min":55,"x_max":408,"ha":445,"o":"m 325 41 l 325 41 q 289 -1 234 -1 q 179 -1 139 33 l 139 33 q 55 98 55 232 l 55 232 q 55 337 113 401 q 171 464 256 464 q 341 464 372 406 l 372 406 q 399 355 399 252 l 399 252 l 397 170 q 397 112 403 10 q 408 -93 408 -145 l 408 -145 q 408 -231 366 -271 q 323 -312 236 -312 l 236 -312 q 184 -312 130 -290 q 76 -268 76 -239 l 76 -239 q 76 -218 88 -207 q 99 -196 114 -196 q 129 -196 182 -218 q 234 -240 257 -240 l 257 -240 q 329 -240 329 -122 q 329 -4 325 41 m 324 253 q 324 325 303 355 q 281 384 235 384 q 189 384 161 342 q 133 300 133 236 q 133 171 160 133 q 186 95 241 95 q 296 95 312 142 l 312 142 q 324 180 324 253"},"h":{"x_min":41,"x_max":397,"ha":420,"o":"m 145 324 l 145 324 l 153 88 q 153 44 149 37 l 149 37 q 147 19 138 9 q 128 -1 101 -1 l 101 -1 q 88 -1 80 16 q 72 32 71 53 l 71 53 q 64 229 53 384 q 41 538 41 671 l 41 671 q 41 692 55 704 q 69 716 88 716 l 88 716 q 116 716 122 668 q 127 620 129 548 q 130 476 132 443 l 132 443 q 182 469 232 469 l 232 469 q 348 469 379 367 l 379 367 q 397 309 397 218 l 397 218 q 397 188 392 124 q 386 59 385 40 q 384 21 369 11 q 353 0 335 0 l 335 0 q 307 0 307 30 l 307 30 l 314 204 q 314 226 312 277 q 310 328 292 358 q 273 388 227 388 l 227 388 q 145 388 145 324"},"i":{"x_min":50,"x_max":154,"ha":224,"o":"m 104 632 l 104 632 q 122 632 138 615 q 154 598 154 580 q 154 561 137 542 q 119 523 100 523 q 81 523 66 539 q 50 555 50 580 l 50 580 q 50 628 102 632 l 102 632 q 103 632 104 632 m 146 332 l 146 108 l 147 38 q 147 19 132 7 q 117 -6 100 -6 l 100 -6 q 75 -6 74 19 l 74 19 q 61 338 61 372 q 61 406 64 455 l 64 455 q 66 473 87 473 l 87 473 q 140 473 147 430 l 147 430 q 150 408 150 395 l 150 395 l 146 332"},"j":{"x_min":-101,"x_max":172,"ha":235,"o":"m 111 627 l 111 627 q 129 627 145 610 q 161 593 161 575 q 161 556 144 537 q 126 518 107 518 q 88 518 73 534 q 57 550 57 575 l 57 575 q 57 623 109 627 l 109 627 q 110 627 111 627 m 79 431 q 77 447 90 458 q 103 468 129 468 q 155 468 158 443 l 158 443 q 172 320 172 210 q 172 100 165 -10 q 158 -121 133 -181 l 133 -181 q 99 -260 10 -260 l 10 -260 q -35 -260 -68 -232 q -101 -204 -101 -165 l -101 -165 q -101 -144 -86 -133 q -71 -122 -53 -122 q -35 -122 -26 -131 q -17 -140 -14 -151 l -14 -151 q -4 -180 21 -180 q 45 -180 63 -141 q 80 -102 86 -35 q 91 32 91 107 l 91 107 q 91 342 79 431 l 79 431"},"k":{"x_min":43,"x_max":395,"ha":415,"o":"m 395 45 l 395 45 q 395 -2 352 -2 l 352 -2 q 334 -2 303 87 q 272 175 220 223 l 220 223 q 215 216 178 184 q 140 151 133 144 l 133 144 l 133 44 q 131 29 128 21 q 125 13 115 6 q 104 -1 86 -1 l 86 -1 q 59 -1 59 32 l 59 32 q 59 125 51 321 q 43 516 43 671 l 43 671 q 43 690 59 701 q 74 712 91 712 l 91 712 q 114 712 119 683 l 119 683 l 119 506 q 119 474 120 458 q 121 442 122 410 l 122 410 q 124 344 129 261 l 129 261 q 158 283 204 331 q 249 378 272 412 l 272 412 q 308 469 338 469 l 338 469 q 346 469 354 465 l 354 465 q 375 453 375 437 q 375 421 361 395 l 361 395 q 325 333 278 282 l 278 282 q 323 232 368 139 l 368 139 q 395 79 395 45"},"l":{"x_min":33,"x_max":265,"ha":266,"o":"m 36 648 q 38 685 48 697 q 57 708 78 708 l 78 708 q 121 708 121 673 l 121 673 q 121 646 117 532 q 112 418 112 328 q 112 238 119 183 l 119 183 q 131 87 153 87 q 175 87 186 118 l 186 118 q 191 130 202 140 q 213 149 230 149 l 230 149 q 265 149 265 90 l 265 90 q 265 58 231 27 q 196 -5 162 -5 q 128 -5 108 7 q 87 18 75 41 q 62 64 55 86 q 47 107 44 138 l 44 138 q 38 188 36 299 q 33 409 33 510 q 33 610 36 648"},"m":{"x_min":40,"x_max":641,"ha":680,"o":"m 95 -1 l 95 -1 q 69 -1 64 28 l 64 28 q 64 230 40 388 l 40 388 q 40 408 55 424 q 69 440 88 440 q 106 440 115 419 l 115 419 q 152 468 214 468 l 214 468 q 293 468 336 392 l 336 392 q 386 464 469 464 q 551 464 592 398 l 592 398 q 619 357 630 290 q 641 223 641 100 l 641 100 q 641 52 631 26 q 621 -1 589 -1 l 589 -1 q 563 -1 563 32 l 563 32 l 566 157 q 566 382 449 382 l 449 382 q 412 382 397 356 l 397 356 q 380 325 377 291 l 377 291 q 373 231 373 182 l 373 182 l 373 37 q 373 21 357 10 q 341 -1 324 -1 l 324 -1 q 302 -1 296 28 l 296 28 l 299 235 q 299 345 262 372 l 262 372 q 244 385 208 385 q 171 385 154 358 q 136 331 136 271 l 136 271 l 142 85 q 142 -1 95 -1"},"n":{"x_min":65,"x_max":404,"ha":452,"o":"m 76 31 l 76 31 l 65 437 q 65 456 78 468 q 91 480 104 480 l 104 480 q 136 480 141 453 l 141 453 q 145 426 145 397 l 145 397 q 199 468 280 468 l 280 468 q 404 468 404 185 l 404 185 q 404 159 404 107 q 404 54 398 30 l 398 30 q 391 0 355 0 l 355 0 q 331 0 331 32 l 331 32 l 332 88 q 332 204 325 247 q 317 289 310 314 l 310 314 q 293 368 255 368 l 255 368 q 205 368 185 332 l 185 332 q 163 293 159 240 l 159 240 q 152 147 152 43 l 152 43 q 152 23 137 11 q 122 -1 101 -1 l 101 -1 q 76 -1 76 31"},"o":{"x_min":32,"x_max":380,"ha":403,"o":"m 215 466 l 215 466 q 287 466 334 397 q 380 328 380 232 q 380 135 333 67 q 285 -1 207 -1 q 128 -1 80 69 q 32 138 32 223 l 32 223 q 32 332 76 397 l 76 397 q 123 466 215 466 m 203 384 l 203 384 q 161 384 134 340 q 107 296 107 247 l 107 247 q 107 171 137 131 q 167 91 205 91 l 205 91 q 273 91 292 150 l 292 150 q 300 178 300 220 l 300 220 q 300 384 203 384"},"p":{"x_min":41,"x_max":415,"ha":428,"o":"m 196 1 l 196 1 q 162 1 133 24 l 133 24 q 133 24 120 35 l 120 35 l 120 -265 q 114 -285 99 -298 q 84 -312 67 -312 l 67 -312 q 41 -312 41 -277 l 41 -277 l 41 420 q 47 446 56 457 q 64 468 83 468 q 101 468 107 460 q 112 451 120 413 l 120 413 q 124 433 152 450 q 180 467 227 467 l 227 467 q 329 467 372 393 q 415 319 415 219 q 415 118 357 60 q 298 1 196 1 m 120 301 l 120 301 l 120 115 q 126 112 134 105 l 134 105 q 163 79 197 79 l 197 79 q 335 79 335 221 l 335 221 q 335 342 273 374 l 273 374 q 247 388 209 388 l 209 388 q 172 383 146 356 q 120 328 120 301"},"q":{"x_min":30,"x_max":437,"ha":463,"o":"m 355 -282 l 355 -282 q 355 -280 355 -277 l 355 -277 l 359 -119 q 359 -68 355 -13 l 355 -13 l 349 65 q 316 0 209 0 l 209 0 q 158 0 114 33 l 114 33 q 30 98 30 227 l 30 227 q 30 338 81 401 q 131 464 225 464 q 319 464 364 414 l 364 414 q 395 380 408 342 l 408 342 q 427 276 428 188 l 428 188 l 428 151 l 436 -56 q 437 -87 437 -142 l 437 -142 l 437 -265 q 433 -284 417 -298 q 401 -312 388 -312 l 388 -312 q 355 -312 355 -282 m 195 385 l 195 385 q 152 385 131 351 q 110 317 110 241 q 110 165 143 120 q 176 74 219 74 q 262 74 296 105 q 329 136 347 193 l 347 193 q 342 299 307 342 q 272 385 195 385"},"r":{"x_min":46,"x_max":370,"ha":385,"o":"m 167 146 l 167 146 l 168 43 q 168 25 152 10 q 135 -5 119 -5 l 119 -5 q 96 -5 90 31 l 90 31 q 89 39 82 178 q 75 316 55 395 l 55 395 q 46 433 46 440 l 46 440 q 46 473 86 473 l 86 473 q 103 473 113 460 q 123 447 126 434 q 128 420 130 397 q 132 374 133 368 l 133 368 q 154 418 196 443 q 238 468 288 468 l 288 468 q 370 468 370 426 l 370 426 q 370 405 356 393 q 341 380 322 380 l 322 380 q 237 380 202 326 q 167 272 167 146"},"s":{"x_min":55,"x_max":356,"ha":385,"o":"m 55 340 q 55 399 97 434 q 139 469 195 469 q 250 469 301 449 q 352 429 352 396 l 352 396 q 352 379 339 369 q 326 359 317 359 q 307 359 302 360 q 296 360 262 378 q 227 396 198 396 q 169 396 149 382 q 128 367 128 339 q 128 311 152 295 q 175 279 234 268 q 293 256 325 235 q 356 214 356 157 l 356 157 q 356 74 313 40 q 269 5 207 5 q 145 5 102 22 q 58 39 58 73 l 58 73 q 58 112 97 112 l 97 112 q 107 112 141 98 q 175 84 209 84 q 242 84 260 106 q 277 127 277 155 q 277 183 254 196 q 231 208 184 216 q 137 224 115 233 l 115 233 q 55 257 55 340 l 55 340"},"t":{"x_min":7,"x_max":355,"ha":344,"o":"m 63 467 l 63 467 l 113 466 q 130 466 132 467 l 132 467 l 132 672 q 133 689 149 701 q 165 713 179 713 q 193 713 202 704 q 210 695 209 676 q 208 657 208 468 l 208 468 l 325 472 q 355 472 355 437 l 355 437 q 355 411 340 398 q 324 385 307 384 q 289 383 272 383 l 272 383 l 211 384 q 211 343 220 222 q 228 101 233 66 q 238 30 235 20 q 232 9 224 5 l 224 5 q 211 -1 189 -1 q 167 -1 163 23 l 163 23 q 143 154 136 383 l 136 383 q 127 382 67 382 q 7 382 7 417 l 7 417 q 7 467 63 467"},"u":{"x_min":28,"x_max":382,"ha":400,"o":"m 36 428 q 40 445 53 457 q 66 468 80 468 q 93 468 101 463 q 108 458 110 454 q 111 450 113 440 l 113 440 q 107 362 107 300 q 107 237 122 157 q 137 76 155 76 l 155 76 q 182 76 224 106 q 265 136 283 169 l 283 169 q 271 313 271 416 l 271 416 q 271 437 285 452 q 298 467 317 467 l 317 467 q 348 467 348 425 l 348 425 q 348 354 359 214 q 369 74 380 36 l 380 36 q 382 28 382 18 q 382 7 369 -2 q 355 -12 334 -12 q 312 -12 305 12 l 305 12 q 303 32 295 72 l 295 72 q 225 -1 154 -1 l 154 -1 q 121 -1 95 24 q 69 49 54 92 l 54 92 q 28 175 28 248 q 28 321 36 428 l 36 428"},"v":{"x_min":19,"x_max":389,"ha":400,"o":"m 361 472 l 361 472 q 375 472 382 463 q 389 453 389 442 l 389 442 l 388 432 q 346 325 326 258 l 326 258 q 313 211 307 188 q 300 165 285 107 q 270 49 265 32 l 265 32 q 251 -2 216 -2 l 216 -2 q 199 -2 192 20 l 192 20 q 160 120 98 246 q 36 372 28 391 q 19 409 19 424 q 19 439 33 453 q 46 467 63 467 q 80 467 92 449 l 92 449 q 103 427 155 326 q 206 225 227 167 l 227 167 q 228 173 234 192 l 234 192 q 285 369 317 445 l 317 445 q 334 472 361 472"},"w":{"x_min":24,"x_max":433,"ha":463,"o":"m 121 1 l 121 1 q 87 1 56 134 q 24 266 24 431 l 24 431 q 24 448 39 458 q 53 467 65 467 q 77 467 85 460 q 92 452 92 440 l 92 440 q 92 284 145 140 l 145 140 q 153 152 170 189 q 187 225 202 242 q 217 259 238 259 q 259 259 282 228 q 305 197 322 162 q 338 126 340 124 l 340 124 q 367 208 367 280 l 367 280 l 361 432 q 360 447 375 458 q 390 468 404 468 l 404 468 q 433 468 433 355 l 433 355 l 433 300 q 433 166 392 61 l 392 61 q 370 1 337 1 l 337 1 q 318 1 302 26 q 286 50 266 95 q 246 140 235 157 l 235 157 l 205 98 q 188 63 179 48 q 170 32 154 17 q 138 1 121 1"},"x":{"x_min":40,"x_max":408,"ha":448,"o":"m 151 449 l 151 449 l 233 305 q 267 342 297 387 l 297 387 l 339 449 q 351 466 369 466 q 386 466 397 456 q 408 445 408 431 q 408 416 366 353 q 324 289 276 229 l 276 229 q 285 215 316 164 q 347 113 384 67 l 384 67 q 391 56 391 41 q 391 25 379 12 q 367 -1 352 -1 l 352 -1 q 327 -1 287 55 q 247 110 216 176 l 216 176 q 186 135 158 90 q 129 45 114 25 q 98 4 80 4 q 61 4 51 15 q 40 26 40 42 l 40 42 q 40 81 180 239 l 180 239 q 163 272 118 342 q 73 412 73 428 q 73 444 87 456 q 100 468 121 468 q 141 468 151 449"},"y":{"x_min":18,"x_max":395,"ha":423,"o":"m 357 462 l 357 462 q 370 462 383 453 q 395 444 395 433 l 395 433 q 395 404 310 119 q 225 -166 184 -281 l 184 -281 q 175 -308 156 -308 q 137 -308 126 -294 q 115 -281 115 -255 q 115 -229 149 -130 q 182 -32 189 -5 l 189 -5 q 164 37 20 415 l 20 415 q 18 420 18 428 q 18 436 30 449 q 42 462 63 462 q 84 462 97 441 l 97 441 q 111 405 143 316 q 175 226 193 186 q 210 146 226 103 l 226 103 q 240 150 274 286 q 308 421 313 440 l 313 440 q 317 462 357 462"},"z":{"x_min":31,"x_max":404,"ha":428,"o":"m 221 385 l 221 385 l 78 372 q 31 372 31 413 l 31 413 q 31 456 80 459 l 80 459 q 95 460 273 460 l 273 460 q 310 460 347 440 l 347 440 q 390 416 390 364 q 390 312 318 250 l 318 250 q 288 224 254 198 l 254 198 q 143 114 143 92 l 143 92 q 143 77 181 77 q 218 77 250 82 q 281 86 317 92 q 353 97 362 97 l 362 97 q 404 97 404 67 l 404 67 q 404 -1 200 -1 l 200 -1 q 126 -1 95 15 q 63 31 53 72 l 53 72 q 52 78 52 84 l 52 84 q 52 112 84 152 l 84 152 q 128 206 199 255 l 199 255 q 280 311 293 334 l 293 334 q 300 347 298 357 l 298 357 q 292 385 221 385"},"{":{"x_min":56,"x_max":312,"ha":339,"o":"m 240 22 l 240 22 l 261 22 q 263 22 265 22 l 265 22 q 300 22 300 -5 l 300 -5 q 300 -19 288 -34 q 275 -49 259 -53 l 259 -53 q 149 -53 122 12 l 122 12 q 115 27 115 45 q 115 62 129 110 q 143 158 143 187 l 143 187 q 143 245 100 292 q 56 339 56 361 q 56 383 90 414 l 90 414 q 99 423 119 445 l 119 445 q 152 484 152 544 l 152 544 q 152 566 142 613 q 132 660 132 671 q 132 682 139 697 q 146 711 157 719 q 167 726 186 733 q 205 740 228 740 l 228 740 l 246 740 q 312 740 312 707 l 312 707 q 312 662 257 662 l 257 662 q 246 662 227 665 l 227 665 q 215 665 215 648 q 215 630 222 597 q 228 564 228 528 q 228 492 211 451 q 193 409 148 364 l 148 364 q 156 352 183 319 l 183 319 q 213 276 220 215 l 220 215 q 220 200 207 145 q 193 89 193 66 q 193 43 207 33 q 221 22 240 22"},"|":{"x_min":46,"x_max":126,"ha":176,"o":"m 46 -19 l 46 -19 l 46 697 q 54 715 68 727 q 82 739 97 739 l 97 739 q 118 739 126 709 l 126 709 l 126 -7 q 120 -26 104 -39 q 88 -53 72 -53 l 72 -53 q 46 -53 46 -19"},"}":{"x_min":44,"x_max":300,"ha":328,"o":"m 56 -3 l 56 -3 q 56 23 99 23 l 99 23 l 116 22 q 163 22 163 66 l 163 66 q 163 91 151 144 q 138 196 138 218 q 138 240 149 272 q 159 303 191 341 l 191 341 q 206 361 209 364 l 209 364 q 163 409 146 451 q 128 492 128 553 l 128 553 q 128 566 135 598 q 142 630 142 648 q 142 665 132 665 l 132 665 l 101 662 q 44 662 44 707 l 44 707 q 50 740 120 740 l 120 740 l 121 740 q 172 740 198 719 q 224 698 224 665 l 224 665 q 224 660 214 613 q 204 566 204 538 l 204 538 q 204 484 238 445 l 238 445 q 252 428 266 414 l 266 414 q 300 383 300 361 q 300 339 258 293 q 215 246 215 187 l 215 187 q 215 155 228 110 q 241 65 241 49 l 241 49 q 241 3 206 -25 q 170 -53 97 -53 l 97 -53 q 81 -49 69 -34 q 56 -19 56 -3"},"~":{"x_min":26,"x_max":499,"ha":529,"o":"m 74 408 l 74 408 q 59 408 43 419 q 26 429 26 445 l 26 445 q 26 476 83 515 q 139 553 176 553 q 212 553 267 523 q 321 493 347 484 l 347 484 q 363 484 403 516 q 443 548 461 548 q 478 548 489 537 q 499 525 499 514 l 499 514 q 499 483 443 446 q 386 408 351 408 l 351 408 q 297 408 253 439 q 208 469 183 469 q 158 469 130 439 q 102 408 74 408"}}}
